<?xml version="1.0" standalone="no"?>
<!DOCTYPE svg PUBLIC "-//W3C//DTD SVG 20010904//EN"
 "http://www.w3.org/TR/2001/REC-SVG-20010904/DTD/svg10.dtd">
<svg version="1.0" xmlns="http://www.w3.org/2000/svg"
 width="168.000000pt" height="168.000000pt" viewBox="0 0 168.000000 168.000000"
 preserveAspectRatio="xMidYMid meet">
<metadata>
Created by potrace 1.14, written by Peter Selinger 2001-2017
</metadata>
<g transform="translate(0.000000,168.000000) scale(0.100000,-0.100000)"
fill="#000000" stroke="none">
<path d="M718 1590 c-257 -47 -468 -202 -577 -424 -99 -202 -106 -416 -20
-623 90 -214 278 -377 516 -445 111 -32 305 -32 416 0 294 84 502 304 561 594
58 282 -61 583 -299 753 -139 99 -270 144 -440 150 -60 2 -131 0 -157 -5z
m257 -165 c120 -26 227 -84 314 -173 88 -88 132 -165 161 -278 50 -195 -3
-401 -143 -551 -76 -81 -152 -130 -255 -166 -166 -57 -336 -45 -500 35 -96 47
-216 168 -265 268 -118 239 -76 501 112 690 153 155 365 219 576 175z"/>
<path d="M565 1110 c-108 -24 -183 -127 -153 -210 15 -42 108 -101 178 -113
98 -17 110 -25 104 -69 -11 -90 -121 -154 -228 -134 -31 6 -63 46 -52 65 3 4
0 13 -5 21 -8 13 -12 12 -24 -4 -15 -20 -15 -20 -16 0 -1 10 -1 25 0 32 1 6
-7 12 -17 12 -16 0 -22 -12 -32 -62 -17 -83 -17 -80 -2 -85 8 -3 16 4 19 16 9
36 26 24 20 -14 -7 -42 6 -53 28 -23 13 20 17 21 25 8 5 -8 10 -10 10 -5 0 6
4 5 8 -1 12 -20 91 -41 138 -38 107 8 208 87 215 169 4 53 -3 69 -48 110 -46
43 -103 66 -192 79 -19 2 -38 11 -43 18 -23 36 19 111 79 141 36 18 106 21
132 7 14 -7 21 -21 21 -40 0 -30 14 -48 25 -30 11 18 25 10 25 -14 0 -52 32
-37 44 19 16 83 16 95 2 95 -8 0 -20 -8 -25 -17 -11 -20 -14 -12 -11 29 2 33
-16 45 -30 18 -9 -17 -14 -18 -33 -7 -12 6 -24 14 -27 17 -13 13 -93 19 -135
10z m35 -37 c0 -1 -15 -9 -32 -17 -43 -19 -88 -62 -100 -97 -13 -37 -24 -37
-24 -2 0 33 71 109 107 115 32 5 49 5 49 1z m145 -397 c-15 -71 -72 -118 -158
-130 -29 -4 -27 -3 15 17 63 29 95 59 115 107 10 22 20 34 24 28 4 -6 6 -16 4
-22z"/>
<path d="M1027 1102 c-24 -5 -17 -38 7 -34 11 2 20 -4 23 -17 5 -20 27 -26 76
-22 22 3 22 -13 -4 -129 -11 -52 -23 -106 -25 -120 -3 -14 -9 -41 -14 -60 -5
-19 -12 -53 -16 -75 -3 -22 -8 -42 -10 -44 -2 -3 -38 -5 -79 -6 -41 -1 -78 -5
-82 -9 -10 -9 26 -38 38 -30 5 3 9 -2 9 -10 0 -8 8 -17 18 -20 21 -7 300 -6
325 0 25 8 21 23 -8 30 -14 3 -25 12 -25 20 0 8 -4 15 -10 15 -5 1 -23 3 -40
4 -16 1 -35 3 -41 4 -6 0 -8 9 -5 19 3 9 7 28 10 42 3 14 14 70 26 125 22 100
24 110 37 175 4 19 8 38 9 43 1 4 2 11 3 16 0 4 35 9 78 9 50 1 79 5 84 14 10
16 5 20 -23 22 -13 0 -23 6 -23 13 0 6 -3 15 -7 19 -8 7 -297 12 -331 6z m168
-158 c-21 -94 -23 -104 -29 -145 -3 -20 -10 -49 -16 -64 -6 -15 -8 -30 -6 -33
3 -2 1 -13 -4 -22 -5 -10 -11 -32 -12 -49 -1 -17 -8 -31 -15 -31 -9 0 -9 7 -1
31 6 16 8 33 4 36 -3 3 -1 12 5 20 6 7 8 13 5 13 -4 0 -2 8 3 18 5 9 12 33 15
52 9 61 46 234 52 250 14 34 13 -11 -1 -76z"/>
</g>
</svg>
